Coordinates
version=1
nRows=14
nColumns=36
inDegrees=yes

Units are S.I. units (second, meters, Newtons, ...)
If the header above contains a line with 'inDegrees', this indicates whether rotational values are in degrees (yes) or radians (no).

endheader
time	pelvis_tilt	pelvis_list	pelvis_rotation	pelvis_tx	pelvis_ty	pelvis_tz	hip_flexion_r	hip_adduction_r	hip_rotation_r	knee_angle_r	knee_angle_r_beta	ankle_angle_r	subtalar_angle_r	mtp_angle_r	hip_flexion_l	hip_adduction_l	hip_rotation_l	knee_angle_l	knee_angle_l_beta	ankle_angle_l	subtalar_angle_l	mtp_angle_l	lumbar_extension	lumbar_bending	lumbar_rotation	arm_flex_r	arm_add_r	arm_rot_r	elbow_flex_r	pro_sup_r	arm_flex_l	arm_add_l	arm_rot_l	elbow_flex_l	pro_sup_l
      1.40000000	    -11.91223960	     -0.41507863	      0.75897007	     -0.92275393	      1.18582867	     -0.05204477	     21.76687008	      1.96125150	      0.43209440	     31.77826627	      0.55463538	     18.99619279	    -19.60328827	     -7.49999987	     22.70673828	     -2.40183233	     -0.29767531	     33.69325777	      0.58805828	     18.17176246	    -12.95452551	     -7.49999987	    -33.11737713	      0.89189046	      0.46486067	      6.34876394	    -13.85716560	     10.24459300	     26.08000291	     71.06733073	      8.75271563	    -14.92936967	     37.51222412	     27.95366848	     67.11103869
      1.40416670	    -11.59914975	     -0.40687241	      0.75649766	     -0.91928894	      1.18392435	     -0.05304371	     21.54549432	      1.97344014	      0.48099395	     32.38382758	      0.56520442	     19.08624014	    -20.12469089	     -7.49999987	     22.47040567	     -2.50210002	     -0.39893761	     34.22867305	      0.59740304	     18.43993589	    -13.02239306	     -7.49999987	    -33.79188672	      0.92236177	      0.59131394	      6.85525435	    -13.92594097	      9.88461904	     26.43930611	     70.63490037	      9.53680279	    -14.92448000	     37.00921022	     28.50984718	     66.81720363
      1.40833330	    -11.11345943	     -0.38334860	      0.71930363	     -0.91330357	      1.17723571	     -0.05042875	     21.17849211	      2.07526288	      0.73962530	     33.05239221	      0.57687307	     19.43872857	    -20.83240919	     -7.49999987	     22.00751251	     -2.73427154	     -0.77091370	     34.96068319	      0.61017903	     19.13341655	    -12.76877698	     -7.49999987	    -34.40339572	      0.83863054	      0.64994750	      7.12888076	    -13.68546071	      8.32281566	     26.84866226	     70.43671305	      9.88396557	    -14.99040083	     35.10937911	     29.28003789	     66.85115047
      1.41250000	    -10.91735863	     -0.36193264	      0.70658539	     -0.91332047	      1.17638754	     -0.05097318	     21.30350604	      2.11530079	      0.87761869	     33.95012905	      0.59254153	     20.04556926	    -21.17579710	     -7.49999987	     22.02075384	     -2.86574326	     -0.95962112	     35.86303489	      0.62592804	     19.54850078	    -13.07956508	     -7.49999987	    -34.78029458	      0.79609866	      0.67941354	      7.56218484	    -13.68867063	      7.83365977	     27.38163414	     70.11072263	     10.57104765	    -15.04180717	     34.40522168	     29.92810485	     66.67451027
      1.41666670	    -10.72290332	     -0.36277080	      0.69187829	     -0.91099992	      1.17402193	     -0.05143338	     21.38973794	      2.20632306	      1.01858450	     34.93253546	      0.60968776	     20.57097420	    -21.51936979	     -7.49999987	     22.13834918	     -3.02147012	     -1.17109620	     36.98056035	      0.64543254	     20.14195361	    -13.02795560	     -7.49999987	    -35.16999569	      0.77733876	      0.66180886	      7.80773408	    -13.35018829	      4.83403269	     28.27574584	     71.37948263	     10.70805804	    -14.90173592	     30.91365391	     31.18566917	     68.34040353
      1.42083330	    -10.54727437	     -0.34241883	      0.59304087	     -0.91015035	      1.17346007	     -0.04999540	     21.62115287	      2.35449168	      1.27687854	     36.06659757	      0.62948088	     20.82248075	    -22.16371639	     -7.49999987	     22.22081807	     -3.09219479	     -1.27298858	     37.80490549	      0.65982007	     20.48268702	    -13.17930824	     -7.49999987	    -35.57953361	      0.65928261	      0.78525006	      8.36258332	    -13.38708203	      4.58966678	     28.74283482	     71.12049426	     11.56877250	    -14.98670071	     30.29603737	     31.92373238	     68.26700323
      1.42500000	    -10.34884254	     -0.34211814	      0.59624585	     -0.90645538	      1.17476628	     -0.05034478	     21.57111384	      2.47460729	      1.43635311	     36.81792612	      0.64259403	     21.08186024	    -22.36074267	     -7.49999987	     22.09546688	     -3.06365349	     -1.19676016	     38.28982901	      0.66828359	     20.61470489	    -13.19437988	     -7.49999987	    -35.91361759	      0.65037518	      0.79163656	      9.12490834	    -13.41856240	      4.46527851	     28.95126224	     71.18855232	     12.58193124	    -14.98051598	     30.03135844	     32.21771847	     68.33862670
      1.42916670	    -10.43451483	     -0.31393173	      0.55464735	     -0.90364361	      1.17050096	     -0.04966285	     21.89020952	      2.60000865	      1.62124838	     37.77723540	      0.65933714	     22.04195252	    -22.24607214	     -7.49999987	     22.33700587	     -3.03541233	     -1.15545332	     38.92972626	      0.67945190	     21.20365104	    -13.18260612	     -7.49999987	    -35.79198611	      0.61107020	      0.86154267	      9.34198804	    -13.50331719	      4.17402490	     29.97729104	     70.76929519	     13.12557372	    -15.14086494	     29.53963213	     33.38454214	     68.05265059
      1.43333330	     -9.82292114	     -0.19917866	      0.37003340	     -0.90035587	      1.17071611	     -0.04835207	     21.27134270	      2.71915157	      2.05964311	     38.41644389	      0.67049343	     22.05609303	    -22.93781648	     -7.49999987	     21.51782363	     -3.11308146	     -1.61639197	     39.26556872	      0.68531346	     21.50849214	    -12.83377320	     -7.49999987	    -36.82298273	      0.32268104	      0.82917628	     10.04713431	    -12.84656942	     -0.26886648	     30.55272142	     78.93908542	     13.45147500	    -14.66341844	     23.62056008	     34.66958123	     77.95289581
      1.43750000	     -9.61430334	     -0.18602455	      0.23415204	     -0.89780547	      1.17034522	     -0.04609935	     21.03352286	      2.96762424	      2.48232429	     38.86800188	      0.67837461	     22.38005257	    -23.17488326	     -7.49999987	     21.26830911	     -3.27703432	     -1.84554645	     39.87780726	      0.69599904	     21.63032649	    -13.11059188	     -7.49999987	    -37.12072194	      0.15080805	      0.99006477	     10.69373564	    -12.83525843	     -0.55002487	     31.13063832	     78.05085978	     14.32729594	    -14.74724233	     23.16206242	     35.47226879	     77.10890407
      1.44166670	     -9.51266560	     -0.16276456	      0.03501983	     -0.89517057	      1.16874762	     -0.04655686	     21.08229594	      3.14602296	      2.88951883	     39.50409335	      0.68947650	     22.92656261	    -23.42124224	     -7.49999987	     21.17734306	     -3.39693271	     -2.03226331	     40.50755109	      0.70699014	     21.90456204	    -13.26803840	     -7.49999987	    -37.30248777	      0.02665547	      1.10037210	     11.31709077	    -12.85551034	     -0.79410488	     31.79523900	     77.48044318	     15.17399892	    -14.81733168	     22.76596267	     36.21979160	     76.57471981
      1.44583330	     -9.08157697	     -0.11174654	     -0.23193300	     -0.89362315	      1.17094686	     -0.04654195	     20.69617273	      3.24180370	      3.26462785	     39.89831604	      0.69635698	     22.91245775	    -23.85739170	     -7.49999987	     20.53285206	     -3.40776447	     -2.23085292	     40.78935704	      0.71190858	     21.97905510	    -13.17822538	     -7.49999987	    -37.94627051	     -0.16259074	      1.26165851	     12.13324912	    -12.89459910	     -1.31037540	     32.31335291	     76.57187371	     16.18647921	    -14.70856600	     22.06436421	     36.96131726	     75.74954282
      1.45000000	     -8.83225840	     -0.05781992	     -0.43632660	     -0.89293130	      1.16926971	     -0.04622972	     20.64582339	      3.31923205	      3.53322381	     40.50975471	      0.70702860	     22.98944734	    -24.29109028	     -7.49999987	     20.33943027	     -3.44988558	     -2.38149038	     41.43973387	      0.72325980	     21.98147092	    -13.45654281	     -7.49999987	    -38.35441574	     -0.30418534	      1.42030439	     12.97408245	    -12.91434728	     -1.78044842	     32.89749914	     76.50327215	     17.29512575	    -14.65382669	     21.48588652	     37.68947898	     75.79964403
      1.45416670	     -8.83351132	     -0.06098220	     -0.63602321	     -0.89136461	      1.16825894	     -0.04726018	     20.91415174	      3.43152012	      3.80898070	     41.12239981	      0.71772127	     23.01125244	    -24.74352306	     -7.49999987	     20.54521969	     -3.46172026	     -2.40846568	     42.18654218	      0.73629406	     22.26399772	    -13.61433146	     -7.49999987	    -38.60747088	     -0.31133319	      1.52768676	     13.82369710	    -13.11081910	     -2.11016713	     33.76319482	     76.10016641	     18.32074499	    -14.62480197	     20.99754511	     38.70032370	     75.49448833
